# xmcd
#
# Track frame offsets:
#	150
#	11485
#	26907
#	43157
#	60130
#	77829
#	92902
#	109457
#	121665
#	137982
#	155342
#	169447
#	187000
#	203725
#	220309
#	238087
#	250595
#	261657
#
# Disc length: 3642 seconds
#
# Revision: 1
# Processed by: cddbd v1.4PL0 Copyright (c) Steve Scherf et al.
# Submitted via: audiograbber 1.80
#
DISCID=060e3812
DTITLE=Various Artist - Classic Country Duets
DYEAR=1900
DGENRE=
TTITLE0=Dave and Sugar - Golden Tears
TTITLE1=David Frizzell and Shelly West - You're The Reason God Made Oklahoma
TTITLE2=Emmy Lou Harris and Don Williams - If I Needed You
TTITLE3=Barbara Mandrell and Waylon Jennings - Angels Love Bad Men
TTITLE4=Eddie Rabbit and Crystal Gayle - You And I
TTITLE5=Marie Osmond and Paul Davis - You're Still New To Me
TTITLE6=Kenny Rogers and Kim Carnes - Don't Fall In Love With A Dreamer
TTITLE7=George Jones and Tammy Wynette - Two Story House
TTITLE8=Merle Haggard and Janie Fricke - A Place To Fall Apart
TTITLE9=Kenny Rogers and Sheena Easton - We've Got Tonight
TTITLE10=Glen Campbell and Sheena Easton - Why Don't We Just Sleep On It
TTITLE11=Eddie Rabbitt and Juice Newton - (Both To Each Other) Friends and Lovers
TTITLE12=Marie Osmond and Paul Davis - Sweet Life
TTITLE13=Tanya Tucker With Paul Davis and Paul Overstreet - I Won't Take Less Tha
TTITLE13=n Your Love
TTITLE14=Marie Osmond and Dan Seals - Meet Me In Montana
TTITLE15=Lee Greenwood and Suzy Boggus - Hopelessly Yours
TTITLE16=Johnny Lee and Lane Brody - The Yellow Rose
TTITLE17=Chris Ledoux and Garth Brooks - Watcha Gonna Do With A Cowboy
EXTD=
EXTT0=
EXTT1=
EXTT2=
EXTT3=
EXTT4=
EXTT5=
EXTT6=
EXTT7=
EXTT8=
EXTT9=
EXTT10=
EXTT11=
EXTT12=
EXTT13=
EXTT14=
EXTT15=
EXTT16=
EXTT17=
PLAYORDER=
